<svg width="15" height="8" viewBox="0 0 15 8" fill="none" xmlns="http://www.w3.org/2000/svg">
<path d="M0.00201221 6.05748C0.00155541 6.29113 0.0829305 6.51756 0.232012 6.69748C0.315961 6.79873 0.419063 6.88244 0.53541 6.94379C0.651757 7.00514 0.779063 7.04294 0.91004 7.05501C1.04102 7.06709 1.17309 7.05321 1.29869 7.01416C1.4243 6.97512 1.54096 6.91168 1.64201 6.82748L7.00201 2.34747L12.372 6.66747C12.4743 6.75054 12.592 6.81257 12.7183 6.85C12.8447 6.88744 12.9772 6.89953 13.1082 6.88559C13.2392 6.87165 13.3662 6.83195 13.4818 6.76878C13.5975 6.70561 13.6995 6.6202 13.782 6.51747C13.873 6.41401 13.9417 6.29284 13.9837 6.16158C14.0257 6.03032 14.0401 5.89179 14.026 5.7547C14.0119 5.61761 13.9697 5.48491 13.9019 5.36492C13.8341 5.24494 13.7422 5.14027 13.632 5.05747L7.63201 0.227475C7.45308 0.0803931 7.22864 -1.25773e-05 6.99701 -1.25671e-05C6.76539 -1.2557e-05 6.54094 0.0803932 6.36201 0.227475L0.362013 5.22748C0.240995 5.32779 0.145331 5.45523 0.0827827 5.59944C0.0202341 5.74365 -0.00743871 5.90057 0.00201221 6.05748Z" fill="#3E3E3E"/>
</svg>
