<svg width="54" height="54" viewBox="0 0 54 54" fill="none" xmlns="http://www.w3.org/2000/svg">
<circle cx="27" cy="27" r="27" fill="#EFEFEF"/>
<path d="M20.0537 28.9689H30.3842L30.4816 28.5307L32.1343 21.0938H31.8683H17.8035L20.0537 28.9689Z" stroke="#3E3E3E" stroke-width="1.5"/>
<path d="M29.3436 35.0782C30.0369 35.0782 30.6016 34.5136 30.6016 33.8204C30.6016 33.1274 30.0369 32.5626 29.3436 32.5626C28.6505 32.5626 28.0858 33.1273 28.0858 33.8204C28.0858 34.5137 28.6505 35.0782 29.3436 35.0782Z" stroke="#3E3E3E"/>
<path d="M21.1014 35.0782C21.7946 35.0782 22.3593 34.5137 22.3593 33.8204C22.3593 33.1273 21.7945 32.5626 21.1014 32.5626C20.4082 32.5626 19.8436 33.1273 19.8436 33.8204C19.8436 34.5137 20.4082 35.0782 21.1014 35.0782Z" stroke="#3E3E3E"/>
</svg>
