<svg width="38" height="37" viewBox="0 0 38 37" fill="none" xmlns="http://www.w3.org/2000/svg">
<circle cx="19.3" cy="18.5" r="18.5" fill="#5E5E5E"/>
<path d="M27.8306 22.749C27.7796 22.6635 27.4637 21.9771 25.9436 20.5662C24.3522 19.0889 24.566 19.3288 26.4827 16.7743C27.6501 15.2185 28.1168 14.2685 27.9708 13.8623C27.8318 13.4752 26.9732 13.5773 26.9732 13.5773L24.1182 13.5939C24.1182 13.5939 23.9068 13.5654 23.7489 13.6592C23.5957 13.7519 23.4971 13.9656 23.4971 13.9656C23.4971 13.9656 23.0447 15.1698 22.4414 16.1935C21.1695 18.3538 20.66 18.4678 20.4522 18.3336C19.9688 18.0212 20.0899 17.0771 20.0899 16.4073C20.0899 14.3136 20.407 13.4407 19.4712 13.2151C19.1601 13.1403 18.932 13.0904 18.1376 13.0821C17.1186 13.0714 16.2552 13.0856 15.7671 13.3243C15.4417 13.4835 15.1912 13.8386 15.3443 13.8587C15.5332 13.8837 15.9607 13.9739 16.1875 14.2827C16.4809 14.6806 16.4702 15.576 16.4702 15.576C16.4702 15.576 16.6388 18.0402 16.0771 18.3466C15.6911 18.5568 15.1626 18.1281 14.0285 16.1674C13.4478 15.1639 13.0084 14.0535 13.0084 14.0535C13.0084 14.0535 12.924 13.8469 12.7732 13.7364C12.5903 13.6022 12.3338 13.5595 12.3338 13.5595L9.619 13.5761C9.619 13.5761 9.21166 13.588 9.06202 13.7649C8.92901 13.9229 9.05133 14.2483 9.05133 14.2483C9.05133 14.2483 11.1771 19.2207 13.5832 21.7277C15.7909 24.0257 18.2967 23.8749 18.2967 23.8749H19.432C19.432 23.8749 19.7752 23.8369 19.9498 23.648C20.1113 23.4746 20.1054 23.1493 20.1054 23.1493C20.1054 23.1493 20.0828 21.6256 20.7906 21.4011C21.4877 21.1802 22.3832 22.8737 23.3321 23.5257C24.0494 24.0186 24.5945 23.9105 24.5945 23.9105L27.1323 23.8749C27.1323 23.8749 28.46 23.7929 27.8306 22.749Z" fill="white"/>
</svg>
