<svg width="54" height="54" viewBox="0 0 54 54" fill="none" xmlns="http://www.w3.org/2000/svg">
<circle cx="27" cy="27" r="27" fill="#EFEFEF"/>
<path d="M29.0425 18.3684L29.0425 18.3684C29.8459 17.9579 30.7115 17.75 31.6217 17.75C34.7519 17.75 37.2998 20.2978 37.2998 23.428C37.2998 25.6676 36.1142 28.1575 33.5657 30.836C31.4555 33.0538 28.8592 34.9192 27.0249 36.107C25.1905 34.9192 22.5943 33.0538 20.484 30.836C17.9356 28.1575 16.75 25.6676 16.75 23.428C16.75 20.2978 19.2978 17.75 22.428 17.75C23.3382 17.75 24.2038 17.9579 25.0073 18.3684L25.0073 18.3684C25.5532 18.6473 26.0566 19.019 26.4889 19.4606L27.0249 20.0082L27.5609 19.4606C27.9932 19.019 28.4965 18.6473 29.0425 18.3684Z" stroke="#3E3E3E" stroke-width="1.5"/>
<g filter="url(#filter0_d_16_13)">
<circle cx="38" cy="16" r="8" fill="url(#paint0_linear_16_13)"/>
<circle cx="38" cy="16" r="7.5" stroke="#EEEEEE"/>
</g>
<path d="M36.099 14.077V12.637H38.673V19H37.053V14.077H36.099Z" fill="white"/>
<defs>
<filter id="filter0_d_16_13" x="26" y="6" width="24" height="24" filterUnits="userSpaceOnUse" color-interpolation-filters="sRGB">
<feFlood flood-opacity="0" result="BackgroundImageFix"/>
<feColorMatrix in="SourceAlpha" type="matrix" values="0 0 0 0 0 0 0 0 0 0 0 0 0 0 0 0 0 0 127 0" result="hardAlpha"/>
<feOffset dy="2"/>
<feGaussianBlur stdDeviation="2"/>
<feColorMatrix type="matrix" values="0 0 0 0 1 0 0 0 0 0.466667 0 0 0 0 0.466667 0 0 0 0.31 0"/>
<feBlend mode="normal" in2="BackgroundImageFix" result="effect1_dropShadow_16_13"/>
<feBlend mode="normal" in="SourceGraphic" in2="effect1_dropShadow_16_13" result="shape"/>
</filter>
<linearGradient id="paint0_linear_16_13" x1="30" y1="8" x2="47.4125" y2="9.72266" gradientUnits="userSpaceOnUse">
<stop stop-color="#FF5E5E"/>
<stop offset="1" stop-color="#FF8080"/>
</linearGradient>
</defs>
</svg>
