<svg width="20" height="18" viewBox="0 0 20 18" fill="none" xmlns="http://www.w3.org/2000/svg">
<path d="M3.05367 10.9689H13.3842L13.4816 10.5307L15.1343 3.09375H14.8683H0.803522L3.05367 10.9689Z" stroke="#3E3E3E" stroke-width="1.5"/>
<path d="M12.3436 17.0782C13.0369 17.0782 13.6016 16.5136 13.6016 15.8204C13.6016 15.1274 13.0369 14.5626 12.3436 14.5626C11.6505 14.5626 11.0858 15.1273 11.0858 15.8204C11.0858 16.5137 11.6505 17.0782 12.3436 17.0782Z" stroke="#3E3E3E"/>
<path d="M4.10144 17.0782C4.79456 17.0782 5.35925 16.5137 5.35925 15.8204C5.35925 15.1273 4.79454 14.5626 4.10144 14.5626C3.40822 14.5626 2.84363 15.1273 2.84363 15.8204C2.84363 16.5137 3.40819 17.0782 4.10144 17.0782Z" stroke="#3E3E3E"/>
</svg>
