<svg width="49" height="61" viewBox="0 0 49 61" fill="none" xmlns="http://www.w3.org/2000/svg">
<g filter="url(#filter0_d_42_5)">
<path d="M38.5833 20.2917C38.5833 18.4149 38.2137 16.5564 37.4954 14.8225C36.7772 13.0885 35.7245 11.513 34.3974 10.1859C33.0703 8.85883 31.4948 7.80611 29.7608 7.08789C28.0269 6.36966 26.1685 6 24.2917 6C22.4149 6 20.5564 6.36966 18.8225 7.08789C17.0885 7.80611 15.513 8.85883 14.1859 10.1859C12.8588 11.513 11.8061 13.0885 11.0879 14.8225C10.3697 16.5564 10 18.4149 10 20.2917C10 23.1235 10.8371 25.7572 12.256 27.9785H12.2397C17.058 35.5225 24.2917 46.8333 24.2917 46.8333L36.3436 27.9785H36.3293C37.8002 25.6845 38.5824 23.0168 38.5833 20.2917ZM24.2917 26.4167C22.6672 26.4167 21.1093 25.7714 19.9606 24.6227C18.812 23.474 18.1667 21.9161 18.1667 20.2917C18.1667 18.6672 18.812 17.1093 19.9606 15.9606C21.1093 14.812 22.6672 14.1667 24.2917 14.1667C25.9161 14.1667 27.474 14.812 28.6227 15.9606C29.7714 17.1093 30.4167 18.6672 30.4167 20.2917C30.4167 21.9161 29.7714 23.474 28.6227 24.6227C27.474 25.7714 25.9161 26.4167 24.2917 26.4167Z" fill="url(#paint0_linear_42_5)"/>
</g>
<defs>
<filter id="filter0_d_42_5" x="0" y="0" width="48.5833" height="60.8334" filterUnits="userSpaceOnUse" color-interpolation-filters="sRGB">
<feFlood flood-opacity="0" result="BackgroundImageFix"/>
<feColorMatrix in="SourceAlpha" type="matrix" values="0 0 0 0 0 0 0 0 0 0 0 0 0 0 0 0 0 0 127 0" result="hardAlpha"/>
<feOffset dy="4"/>
<feGaussianBlur stdDeviation="5"/>
<feColorMatrix type="matrix" values="0 0 0 0 1 0 0 0 0 0.466667 0 0 0 0 0.466667 0 0 0 0.5 0"/>
<feBlend mode="normal" in2="BackgroundImageFix" result="effect1_dropShadow_42_5"/>
<feBlend mode="normal" in="SourceGraphic" in2="effect1_dropShadow_42_5" result="shape"/>
</filter>
<linearGradient id="paint0_linear_42_5" x1="10" y1="6" x2="41.2612" y2="8.16492" gradientUnits="userSpaceOnUse">
<stop stop-color="#FF5E5E"/>
<stop offset="1" stop-color="#FF8080"/>
</linearGradient>
</defs>
</svg>
