<svg width="23" height="20" viewBox="0 0 23 20" fill="none" xmlns="http://www.w3.org/2000/svg">
<path d="M13.1562 1.59107L13.1563 1.59103C13.9242 1.19863 14.7508 1 15.6217 1C18.6139 1 21.0498 3.43589 21.0498 6.42803C21.0498 8.57725 19.911 11.0084 17.3846 13.6636C15.3452 15.8071 12.8423 17.6229 11.0249 18.8088C9.20743 17.6229 6.70459 15.8071 4.66514 13.6636C2.13878 11.0084 1 8.57725 1 6.42803C1 3.43589 3.4359 1 6.42798 1C7.29895 1 8.1255 1.19863 8.89352 1.59104L8.89357 1.59107C9.41506 1.85748 9.89655 2.21288 10.3103 2.63552L11.0249 3.36559L11.7395 2.63552C12.1532 2.21288 12.6347 1.85748 13.1562 1.59107Z" stroke="#3E3E3E" stroke-width="2"/>
</svg>
