<svg width="22" height="7" viewBox="0 0 22 7" fill="none" xmlns="http://www.w3.org/2000/svg">
<path d="M8.06665 6.49519L9.18411 0.209473H10.9301L9.8476 6.49519H8.06665Z" fill="#7290FF"/>
<path d="M8.06665 6.49519L9.4984 0.209473H10.9301L9.8476 6.49519H8.06665Z" fill="#7290FF"/>
<path d="M16.1682 0.279365C15.819 0.139682 15.2603 0 14.5619 0C12.8159 0 11.5587 0.873015 11.5587 2.13016C11.5587 3.07302 12.4317 3.5619 13.1301 3.87619C13.8286 4.19048 14.0381 4.4 14.0381 4.67936C14.0381 5.09841 13.4793 5.30794 12.9905 5.30794C12.292 5.30794 11.9079 5.20318 11.3143 4.95873L11.0698 4.85397L10.8254 6.28571C11.2444 6.46032 12.0127 6.63492 12.8159 6.63492C14.6666 6.63492 15.8889 5.76191 15.8889 4.43492C15.8889 3.70159 15.4349 3.14286 14.3873 2.68889C13.7587 2.3746 13.3746 2.2 13.3746 1.88571C13.3746 1.60635 13.6889 1.32698 14.3873 1.32698C14.9809 1.32698 15.4 1.43175 15.7143 1.57143L15.8889 1.64127L16.1682 0.279365Z" fill="#7290FF"/>
<path d="M16.1682 0.279365C15.819 0.139682 15.2603 0 14.5619 0C12.8159 0 11.873 0.873015 11.873 2.13016C11.873 3.07302 12.4317 3.5619 13.1301 3.87619C13.8286 4.19048 14.0381 4.4 14.0381 4.67936C14.0381 5.09841 13.4793 5.30794 12.9905 5.30794C12.292 5.30794 11.9079 5.20318 11.3143 4.95873L11.0698 4.85397L10.8254 6.28571C11.2444 6.46032 12.0127 6.63492 12.8159 6.63492C14.6666 6.63492 15.8889 5.76191 15.8889 4.43492C15.8889 3.70159 15.4349 3.14286 14.3873 2.68889C13.7587 2.3746 13.3746 2.2 13.3746 1.88571C13.3746 1.60635 13.6889 1.32698 14.3873 1.32698C14.9809 1.32698 15.4 1.43175 15.7143 1.57143L15.8889 1.64127L16.1682 0.279365Z" fill="#7290FF"/>
<path d="M19.1715 0.209473C18.7524 0.209473 18.4381 0.244394 18.2635 0.663441L15.6445 6.49519H17.5302L17.8794 5.44757H20.1143L20.3238 6.49519H22L20.5334 0.209473H19.1715ZM18.3683 4.39995C18.473 4.08566 19.0667 2.54916 19.0667 2.54916C19.0667 2.54916 19.2064 2.16503 19.3111 1.92058L19.4159 2.51423C19.4159 2.51423 19.7651 4.08566 19.8349 4.43487H18.3683V4.39995Z" fill="#7290FF"/>
<path d="M19.5905 0.209473C19.1715 0.209473 18.8572 0.244394 18.6826 0.663441L15.6445 6.49519H17.5302L17.8794 5.44757H20.1143L20.3238 6.49519H22L20.5334 0.209473H19.5905ZM18.3683 4.39995C18.508 4.05074 19.0667 2.54916 19.0667 2.54916C19.0667 2.54916 19.2064 2.16503 19.3111 1.92058L19.4159 2.51423C19.4159 2.51423 19.7651 4.08566 19.8349 4.43487H18.3683V4.39995Z" fill="#7290FF"/>
<path d="M4.85397 4.60947L4.67937 3.70153C4.36508 2.65391 3.35238 1.50153 2.23492 0.942797L3.80635 6.5301H5.69207L8.52064 0.244385H6.63492L4.85397 4.60947Z" fill="#7290FF"/>
<path d="M4.85397 4.60947L4.67937 3.70153C4.36508 2.65391 3.35238 1.50153 2.23492 0.942797L3.80635 6.5301H5.69207L8.52064 0.244385H6.98413L4.85397 4.60947Z" fill="#7290FF"/>
<path d="M0 0.209473L0.314286 0.279314C2.54921 0.803124 4.08571 2.13011 4.67937 3.70154L4.05079 0.733282C3.94603 0.314235 3.63175 0.209473 3.24762 0.209473H0Z" fill="#FFBC00"/>
<path d="M0 0.209473C2.23492 0.733282 4.08571 2.09519 4.67937 3.66662L4.08571 1.18725C3.98095 0.768203 3.63175 0.523759 3.24762 0.523759L0 0.209473Z" fill="#F7981D"/>
<path d="M0 0.209473C2.23492 0.733282 4.08571 2.09519 4.67937 3.66662L4.26032 2.30471C4.15556 1.88566 4.01587 1.46662 3.52698 1.29201L0 0.209473Z" fill="#ED7C00"/>
<path d="M6.6 4.40002L5.41269 3.21272L4.85396 4.53971L4.71428 3.66669C4.4 2.61907 3.3873 1.46669 2.26984 0.907959L3.84127 6.49526H5.72698L6.6 4.40002Z" fill="#7290FF"/>
<path d="M9.84742 6.495L8.34583 4.9585L8.06647 6.495H9.84742Z" fill="#7290FF"/>
<path d="M13.8633 4.32983C14.003 4.46952 14.0728 4.57428 14.0379 4.71396C14.0379 5.13301 13.4792 5.34253 12.9903 5.34253C12.2919 5.34253 11.9077 5.23777 11.3141 4.99333L11.0696 4.88856L10.8252 6.32031C11.2442 6.49491 12.0125 6.66952 12.8157 6.66952C13.9331 6.66952 14.8411 6.35523 15.3649 5.7965L13.8633 4.32983Z" fill="#7290FF"/>
<path d="M15.8887 6.49501H17.53L17.8792 5.44739H20.1141L20.3237 6.49501H21.9998L21.4062 3.94581L19.311 1.92041L19.4157 2.47914C19.4157 2.47914 19.7649 4.05057 19.8348 4.39977H18.3681C18.5078 4.05057 19.0665 2.54898 19.0665 2.54898C19.0665 2.54898 19.2062 2.16485 19.311 1.92041" fill="#7290FF"/>
</svg>
