<svg width="20" height="12" viewBox="0 0 20 12" fill="none" xmlns="http://www.w3.org/2000/svg">
<path d="M6 12C9.31371 12 12 9.31371 12 6C12 2.68629 9.31371 0 6 0C2.68629 0 0 2.68629 0 6C0 9.31371 2.68629 12 6 12Z" fill="#EE0005"/>
<path d="M14 12C17.3137 12 20 9.31371 20 6C20 2.68629 17.3137 0 14 0C10.6863 0 8 2.68629 8 6C8 9.31371 10.6863 12 14 12Z" fill="#F9A000"/>
<path d="M8.01953 6C8.01953 7.82338 8.80106 9.4481 10.0195 10.5C11.238 9.44805 12.0195 7.82338 12.0195 6C12.0195 4.17662 11.238 2.5519 10.0195 1.5C8.8011 2.55199 8.01953 4.17667 8.01953 6Z" fill="#FF6300"/>
</svg>
