<svg width="37" height="37" viewBox="0 0 37 37" fill="none" xmlns="http://www.w3.org/2000/svg">
<circle cx="18.5" cy="18.5" r="18.5" fill="#5E5E5E"/>
<g clip-path="url(#clip0_26_18)">
<path d="M23.5273 14.6164C24.1399 14.6164 24.6365 14.1198 24.6365 13.5072C24.6365 12.8946 24.1399 12.3979 23.5273 12.3979C22.9147 12.3979 22.4181 12.8946 22.4181 13.5072C22.4181 14.1198 22.9147 14.6164 23.5273 14.6164Z" fill="white"/>
<path d="M18.5896 13.8313C16.0133 13.8313 13.9022 15.9424 13.9022 18.5187C13.9022 21.095 16.0133 23.2061 18.5896 23.2061C21.1659 23.2061 23.277 21.095 23.277 18.5187C23.277 15.9424 21.1659 13.8313 18.5896 13.8313ZM18.5896 21.5243C16.9437 21.5243 15.584 20.1646 15.584 18.5187C15.584 16.8727 16.9437 15.513 18.5896 15.513C20.2356 15.513 21.5953 16.8727 21.5953 18.5187C21.5953 20.1646 20.2356 21.5243 18.5896 21.5243Z" fill="white"/>
<path d="M22.3107 28H14.725C11.5763 28 9 25.4237 9 22.275V14.725C9 11.5763 11.5763 9 14.725 9H22.3107C25.4595 9 28.0358 11.5763 28.0358 14.725V22.3107C28 25.4595 25.4595 28 22.3107 28ZM14.725 10.7891C12.5424 10.7891 10.7891 12.5424 10.7891 14.725V22.3107C10.7891 24.4576 12.5424 26.2467 14.725 26.2467H22.3107C24.4576 26.2467 26.2467 24.4934 26.2467 22.3107V14.725C26.2467 12.5782 24.4934 10.7891 22.3107 10.7891H14.725Z" fill="white"/>
</g>
<defs>
<clipPath id="clip0_26_18">
<rect width="19" height="19" fill="white" transform="translate(9 9)"/>
</clipPath>
</defs>
</svg>
