<svg width="12" height="12" viewBox="0 0 12 12" fill="none" xmlns="http://www.w3.org/2000/svg">
<g clip-path="url(#clip0_26_28)">
<path d="M3.04107 0.928647L3.05163 0.929299L3.06153 0.940509C3.4464 1.57186 3.86763 2.30082 4.32522 3.12741C4.32878 3.18415 4.3031 3.25674 4.24818 3.34519C4.17701 3.46796 3.98171 3.77027 3.66228 4.25213L3.42832 4.60857L3.6496 4.97195C3.95124 5.46393 4.4124 6.06113 5.03308 6.76357C5.65377 7.466 6.18635 7.99344 6.63085 8.34589L6.96357 8.62078L7.35666 8.43312C7.87417 8.17545 8.19823 8.01885 8.32883 7.96334C8.37983 7.93823 8.42325 7.92149 8.4591 7.9131C8.49494 7.90472 8.52341 7.90118 8.54453 7.90249L8.55509 7.90314C9.08933 8.28939 9.7642 8.80089 10.5797 9.43765C10.5837 9.48735 10.5628 9.53905 10.5171 9.59274C10.2877 9.87529 10.0347 10.1405 9.75795 10.3883C9.48125 10.6361 9.28155 10.781 9.15886 10.8229C8.52763 10.7485 7.79758 10.4155 6.96871 9.82386C6.13984 9.2322 5.26319 8.41327 4.33877 7.36709C3.8836 6.84443 3.47858 6.339 3.12372 5.85081C2.76886 5.36261 2.47076 4.89911 2.22941 4.46031C1.98806 4.02152 1.80699 3.60764 1.6862 3.21868C1.56541 2.82972 1.50754 2.47997 1.5126 2.16944C1.56222 2.0524 1.72703 1.87184 2.00704 1.62775C2.28705 1.38365 2.58138 1.16517 2.89001 0.972298C2.94102 0.947191 2.99137 0.932641 3.04107 0.928647ZM3.08151 0.274126C3.03929 0.271517 3.00036 0.272644 2.96474 0.277508L2.85786 0.292098L2.75034 0.317245L2.64184 0.358227L2.53268 0.409767C2.48871 0.435309 2.42617 0.475599 2.34506 0.530637C2.26395 0.585675 2.12898 0.683308 1.94017 0.823532C1.75135 0.963756 1.58211 1.10166 1.43244 1.23724C1.28277 1.37282 1.14641 1.52158 1.02337 1.68353C0.900324 1.84548 0.838407 1.99002 0.837618 2.11713C0.824731 2.55435 0.904899 3.02911 1.07812 3.54141C1.25134 4.05371 1.49351 4.56497 1.80462 5.07519C2.11574 5.58541 2.43441 6.05901 2.76065 6.49599C3.08688 6.93297 3.44479 7.3719 3.83436 7.81279C4.22394 8.25368 4.61536 8.66466 5.00864 9.04573C5.40191 9.4268 5.83257 9.80311 6.30061 10.1747C6.76865 10.5462 7.24796 10.8496 7.73856 11.0848C8.22915 11.32 8.69571 11.4583 9.13823 11.4998L9.14878 11.5004C9.26843 11.5078 9.41618 11.4605 9.59205 11.3583C9.76791 11.2561 9.93244 11.1374 10.0856 11.002C10.2388 10.8666 10.3964 10.7174 10.5584 10.5543C10.7203 10.3913 10.8356 10.2694 10.9042 10.1889L11.0413 10.0278C11.196 9.81131 11.2672 9.602 11.2549 9.3999C11.2427 9.1978 11.1657 9.04292 11.024 8.93526C11.0042 8.91284 10.9403 8.8612 10.8322 8.78034C10.7242 8.69949 10.5993 8.60523 10.4576 8.49757C10.3159 8.38991 10.1624 8.27269 9.99718 8.14591C9.83193 8.01913 9.67493 7.90169 9.52619 7.79359C9.37745 7.68549 9.2474 7.58915 9.13606 7.50456C9.02472 7.41997 8.95211 7.36603 8.91822 7.34274C8.87773 7.31198 8.82812 7.28595 8.76939 7.26466C8.71065 7.24337 8.64962 7.23077 8.58628 7.22685C8.54405 7.22424 8.5016 7.22515 8.45894 7.22958C8.41628 7.23401 8.37164 7.24185 8.32503 7.2531C8.27841 7.26435 8.23169 7.27736 8.18485 7.29212C8.13802 7.30689 8.09284 7.32353 8.0493 7.34203C7.91124 7.40415 7.57992 7.56383 7.05537 7.82107C6.64476 7.49191 6.13902 6.98733 5.53815 6.30731C5.19479 5.91873 4.91701 5.58365 4.7048 5.30208C4.4926 5.02051 4.3352 4.79531 4.23259 4.62648C4.55289 4.13054 4.75214 3.82141 4.83035 3.69908C5.03508 3.35849 5.07072 3.06751 4.93727 2.82613C4.87385 2.70917 4.65047 2.3227 4.26712 1.66672C3.88377 1.01074 3.66633 0.642304 3.61481 0.561409C3.5056 0.385108 3.32784 0.289346 3.08151 0.274126Z" fill="white"/>
</g>
<defs>
<clipPath id="clip0_26_28">
<rect width="10.8308" height="11" fill="white" transform="translate(0.133301 10.9436) rotate(-86.4642)"/>
</clipPath>
</defs>
</svg>
