<svg width="22" height="25" viewBox="0 0 22 25" fill="none" xmlns="http://www.w3.org/2000/svg">
<path d="M21.7445 16.3282L19.4602 14.0439V10.1522C19.4575 8.05138 18.6786 6.0256 17.2732 4.46404C15.8678 2.90248 13.935 1.91527 11.846 1.69204V0H10.154V1.69204C8.07079 1.92952 6.14646 2.92096 4.74386 4.47942C3.34125 6.03787 2.55729 8.05564 2.5398 10.1522V14.0439L0.255541 16.3282C0.172967 16.4027 0.10752 16.4942 0.0637057 16.5965C0.0198911 16.6987 -0.00125095 16.8092 0.00173462 16.9204V19.4585C-0.00574329 19.5715 0.0110145 19.6848 0.0508862 19.7909C0.0907578 19.8969 0.152823 19.9932 0.232926 20.0733C0.313029 20.1534 0.409322 20.2155 0.515356 20.2553C0.62139 20.2952 0.734719 20.312 0.847755 20.3045H6.7699C6.7699 21.4264 7.21557 22.5023 8.00887 23.2956C8.80216 24.0889 9.87811 24.5346 11 24.5346C12.1219 24.5346 13.1978 24.0889 13.9911 23.2956C14.7844 22.5023 15.2301 21.4264 15.2301 20.3045H21.1522C21.2653 20.312 21.3786 20.2952 21.4846 20.2553C21.5907 20.2155 21.687 20.1534 21.7671 20.0733C21.8472 19.9932 21.9092 19.8969 21.9491 19.7909C21.989 19.6848 22.0057 19.5715 21.9983 19.4585V16.9204C22.0013 16.8092 21.9801 16.6987 21.9363 16.5965C21.8925 16.4942 21.827 16.4027 21.7445 16.3282ZM11 22.8426C10.3269 22.8426 9.6813 22.5751 9.20532 22.0992C8.72934 21.6232 8.46194 20.9776 8.46194 20.3045H13.5381C13.5381 20.9776 13.2707 21.6232 12.7947 22.0992C12.3187 22.5751 11.6731 22.8426 11 22.8426ZM20.3062 18.6124H1.69378V17.2588L3.97803 14.9746C4.0606 14.9 4.12605 14.8085 4.16987 14.7063C4.21368 14.604 4.23482 14.4935 4.23184 14.3823V10.1522C4.23184 8.35722 4.94491 6.63571 6.21419 5.36643C7.48346 4.09715 9.20497 3.38408 11 3.38408C12.795 3.38408 14.5165 4.09715 15.7858 5.36643C17.0551 6.63571 17.7682 8.35722 17.7682 10.1522V14.3823C17.7652 14.4935 17.7863 14.604 17.8301 14.7063C17.8739 14.8085 17.9394 14.9 18.022 14.9746L20.3062 17.2588V18.6124Z" fill="url(#paint0_linear_47_48)"/>
<defs>
<linearGradient id="paint0_linear_47_48" x1="0" y1="0" x2="23.9877" y2="2.128" gradientUnits="userSpaceOnUse">
<stop stop-color="#FF5E5E"/>
<stop offset="1" stop-color="#FF8080"/>
</linearGradient>
</defs>
</svg>
